HIERARCHY
ROOT Hips
{
	OFFSET 0.00 0.00 0.00
	CHANNELS 6 Xposition Yposition Zposition Yrotation Xrotation Zrotation
	JOINT Spine
	{
		OFFSET	0.0000	9.2263	1.5771
		CHANNELS 3 Xrotation Yrotation Zrotation
		JOINT Spine1
		{
			OFFSET	0.0000	16.2540	-0.1656
			CHANNELS 3 Xrotation Yrotation Zrotation
			JOINT Spine2
			{
				OFFSET	0.0000	13.6396	-1.2923
				CHANNELS 3 Xrotation Yrotation Zrotation
				JOINT Neck
				{
					OFFSET	0.0000	13.8774	-4.3542
					CHANNELS 3 Xrotation Yrotation Zrotation
					JOINT Neck1
					{
						OFFSET	0.0000	4.3400	0.9269
						CHANNELS 3 Xrotation Yrotation Zrotation
						JOINT Head
						{
							OFFSET	0.0000	4.0266	0.8585
							CHANNELS 3 Xrotation Yrotation Zrotation
							End Site
							{
								OFFSET 0.0000 23.0297 0.1231
							}
						}
					}
				}
				JOINT LeftShoulder
				{
					OFFSET	6.1442	10.1870	-3.7932
					CHANNELS 3 Zrotation Xrotation Yrotation
					JOINT LeftArm
					{
						OFFSET	12.3191	-1.1130	-1.7935
						CHANNELS 3 Zrotation Xrotation Yrotation
						JOINT LeftForeArm
						{
							OFFSET	27.6870	0.0000	0.0000
							CHANNELS 3 Xrotation Zrotation Yrotation
							JOINT LeftHand
							{
								OFFSET	27.8738	0.0000	0.0000
								CHANNELS 3 Zrotation Yrotation Xrotation
								JOINT LeftHandThumb1
								{
									OFFSET	2.3785	-1.0029	2.6209
									CHANNELS 3 Zrotation Xrotation Yrotation
									JOINT LeftHandThumb2
									{
										OFFSET	3.3624	-1.0029	2.8398
										CHANNELS 3 Zrotation Xrotation Yrotation
										JOINT LeftHandThumb3
										{
											OFFSET	4.5018	-1.3445	2.1783
											CHANNELS 3 Zrotation Xrotation Yrotation
											End Site
											{
												OFFSET 2.6000 -1.0000 1.0000
											}
										}
									}
								}
								JOINT LeftHandMiddle1
								{
									OFFSET	10.4639	0.6148	0.4298
									CHANNELS 3 Zrotation Xrotation Yrotation
									JOINT LeftHandMiddle2
									{
										OFFSET	5.7921	0.0000	0.0000
										CHANNELS 3 Zrotation Xrotation Yrotation
										JOINT LeftHandMiddle3
										{
											OFFSET	3.7132	0.0000	0.0000
											CHANNELS 3 Zrotation Xrotation Yrotation
											End Site
											{
												OFFSET 2.3000 0.0000 0.0000
											}
										}
									}
								}
								JOINT LeftHandIndex1
								{
									OFFSET	10.3945	0.6148	2.7055
									CHANNELS 3 Zrotation Xrotation Yrotation
									JOINT LeftHandIndex2
									{
										OFFSET	5.5493	0.0000	0.0000
										CHANNELS 3 Zrotation Xrotation Yrotation
										JOINT LeftHandIndex3
										{
											OFFSET	3.3911	0.0000	0.0000
											CHANNELS 3 Zrotation Xrotation Yrotation
											End Site
											{
												OFFSET 2.5000 0.0000 0.0000
											}
										}
									}
								}
								JOINT LeftHandRing1
								{
									OFFSET	10.3252	0.3211	-1.8755
									CHANNELS 3 Zrotation Xrotation Yrotation
									JOINT LeftHandRing2
									{
										OFFSET	5.4452	0.0000	0.0000
										CHANNELS 3 Zrotation Xrotation Yrotation
										JOINT LeftHandRing3
										{
											OFFSET	3.7132	0.0000	0.0000
											CHANNELS 3 Zrotation Xrotation Yrotation
											End Site
											{
												OFFSET 2.0000 0.0000 0.0000
											}
										}
									}
								}
								JOINT LeftHandPinky1
								{
									OFFSET	10.0130	-0.0783	-3.9671
									CHANNELS 3 Zrotation Xrotation Yrotation
									JOINT LeftHandPinky2
									{
										OFFSET	3.6763	0.0000	0.0000
										CHANNELS 3 Zrotation Xrotation Yrotation
										JOINT LeftHandPinky3
										{
											OFFSET	2.8113	0.0000	0.0000
											CHANNELS 3 Zrotation Xrotation Yrotation
											End Site
											{
												OFFSET 2.9000 0.0000 0.0000
											}
										}
									}
								}
							}
						}
					}
				}
				JOINT RightShoulder
				{
					OFFSET	-6.1402	10.1870	-3.7932
					CHANNELS 3 Zrotation Xrotation Yrotation
					JOINT RightArm
					{
						OFFSET	-12.3231	-1.1130	-1.7935
						CHANNELS 3 Zrotation Xrotation Yrotation
						JOINT RightForeArm
						{
							OFFSET	-27.6870	0.0000	0.0000
							CHANNELS 3 Xrotation Zrotation Yrotation
							JOINT RightHand
							{
								OFFSET	-27.8738	0.0000	0.0000
								CHANNELS 3 Zrotation Yrotation Xrotation
								JOINT RightHandThumb1
								{
									OFFSET	-2.5178	-0.9367	2.5137
									CHANNELS 3 Zrotation Xrotation Yrotation
									JOINT RightHandThumb2
									{
										OFFSET	-3.2638	-1.0870	2.9669
										CHANNELS 3 Zrotation Xrotation Yrotation
										JOINT RightHandThumb3
										{
											OFFSET	-4.4165	-1.3703	2.1350
											CHANNELS 3 Zrotation Xrotation Yrotation
											End Site
											{
												OFFSET -2.6000 -1.0000 1.0000
											}
										}
									}
								}
								JOINT RightHandIndex1
								{
									OFFSET	-10.4665	0.4896	2.7120
									CHANNELS 3 Zrotation Xrotation Yrotation
									JOINT RightHandIndex2
									{
										OFFSET	-5.3768	0.0000	0.0000
										CHANNELS 3 Zrotation Xrotation Yrotation
										JOINT RightHandIndex3
										{
											OFFSET	-3.3855	0.0000	0.0000
											CHANNELS 3 Zrotation Xrotation Yrotation
											End Site
											{
												OFFSET -2.6000 0.0000 0.0000
											}
										}
									}
								}
								JOINT RightHandMiddle1
								{
									OFFSET	-10.7596	0.4896	0.4278
									CHANNELS 3 Zrotation Xrotation Yrotation
									JOINT RightHandMiddle2
									{
										OFFSET	-5.6168	0.0000	0.0000
										CHANNELS 3 Zrotation Xrotation Yrotation
										JOINT RightHandMiddle3
										{
											OFFSET	-3.7364	0.0000	0.0000
											CHANNELS 3 Zrotation Xrotation Yrotation
											End Site
											{
												OFFSET -2.3000 0.0000 0.0000
											}
										}
									}
								}
								JOINT RightHandRing1
								{
									OFFSET	-10.4702	0.3879	-1.9363
									CHANNELS 3 Zrotation Xrotation Yrotation
									JOINT RightHandRing2
									{
										OFFSET	-5.4013	0.0000	0.0000
										CHANNELS 3 Zrotation Xrotation Yrotation
										JOINT RightHandRing3
										{
											OFFSET	-3.3916	0.0000	0.0000
											CHANNELS 3 Zrotation Xrotation Yrotation
											End Site
											{
												OFFSET -2.2000 0.0000 0.0000
											}
										}
									}
								}
								JOINT RightHandPinky1
								{
									OFFSET	-9.9715	-0.1191	-3.9540
									CHANNELS 3 Zrotation Xrotation Yrotation
									JOINT RightHandPinky2
									{
										OFFSET	-3.6528	0.0000	0.0000
										CHANNELS 3 Zrotation Xrotation Yrotation
										JOINT RightHandPinky3
										{
											OFFSET	-2.7820	0.0000	0.0000
											CHANNELS 3 Zrotation Xrotation Yrotation
											End Site
											{
												OFFSET -2.9000 0.0000 0.0000
											}
										}
									}
								}
							}
						}
					}
				}
			}
		}
	}
	JOINT LeftUpLeg
	{
		OFFSET	9.6338	-3.2733	0.0000
		CHANNELS 3 Xrotation Yrotation Zrotation
		JOINT LeftLeg
		{
			OFFSET	0.0000	-41.7300	-1.7300
			CHANNELS 3 Xrotation Yrotation Zrotation
			JOINT LeftFoot
			{
				OFFSET	0.0126	-39.1900	-0.8477
				CHANNELS 3 Xrotation Yrotation Zrotation
				JOINT LeftToeBase
				{
					OFFSET	-0.1833	-12.1931	8.2823
					CHANNELS 3 Xrotation Yrotation Zrotation
					End Site
					{
						OFFSET 0.0000 0.0000 10.1681
					}
				}
			}
		}
	}
	JOINT RightUpLeg
	{
		OFFSET	-9.6338	-3.2733	0.0000
		CHANNELS 3 Xrotation Yrotation Zrotation
		JOINT RightLeg
		{
			OFFSET	0.0000	-41.7300	-1.7300
			CHANNELS 3 Xrotation Yrotation Zrotation
			JOINT RightFoot
			{
				OFFSET	0.0126	-39.1900	-0.8477
				CHANNELS 3 Xrotation Yrotation Zrotation
				JOINT RightToeBase
				{
					OFFSET	-0.1833	-12.1931	8.2823
					CHANNELS 3 Xrotation Yrotation Zrotation
					End Site
					{
						OFFSET 0.0032 0.0000 10.1681
					}
				}
			}
		}
	}
}
MOTION
Frames: 6
Frame Time: 0.0333333
4.4568 120.3123 -8.9931 2.1568 16.2746 -5.0254 12.6745 2.7269 0.1193 4.7752 1.7345 0.7959 4.7596 1.7309 0.6594 18.8921 -2.4345 -3.4805 -0.0000 0.0000 -0.0000 -32.0791 -12.0530 4.7243 25.9852 1.8137 -4.0927 17.5939 -17.2126 -23.4864 0.0000 0.0000 -50.3708 26.3795 0.7320 -34.1035 -2.0847 3.5886 2.2636 14.4048 -5.4413 -8.7299 11.8168 -22.8055 -17.9876 -5.3480 0.0002 -1.4313 -17.8434 0.0007 -0.0046 -18.8607 0.0008 -0.0049 1.3219 0.4297 -17.8670 -17.1399 0.0007 -0.0044 -7.7639 0.0001 -0.0020 -11.8866 0.0004 8.0164 -21.2132 0.0010 -0.0054 -18.1636 0.0007 -0.0047 -18.2931 -0.1456 20.5152 -17.5170 0.0007 -0.0045 -16.6122 0.0006 -0.0043 -29.5357 -2.0493 14.2737 12.8505 -24.1588 -16.3876 0.0000 -0.0000 37.2918 -16.8190 -3.9283 -8.5840 2.8038 2.8576 1.3520 -21.3810 7.8482 11.2286 -25.9693 -16.6641 -3.2138 5.5263 0.0385 21.6048 13.2123 0.0002 0.0018 4.0319 0.0000 0.0006 9.2078 0.0002 1.8559 12.0323 0.0002 0.0016 13.0501 0.0002 0.0018 13.9055 0.0003 -5.4656 18.7631 0.0004 0.0025 15.6879 0.0003 0.0021 20.1389 0.0052 -16.5214 16.0552 0.0003 0.0022 15.1794 0.0003 0.0021 -94.8076 4.6944 20.4626 108.4808 3.4218 0.2862 -10.1475 -0.3003 1.8636 -5.9555 -0.0000 -0.0000 -118.5582 5.2788 -9.6785 127.4248 -2.1260 0.1831 -8.2886 -1.4096 6.5705 -8.7383 0.0000 -0.0000 
5.0924 117.7524 -7.6999 -0.0521 14.2576 -5.8071 11.9889 4.1526 1.1386 4.5037 2.1179 1.2840 4.4984 2.1281 1.1480 18.9288 -2.7244 -3.6196 -0.0000 0.0000 -0.0000 -30.1585 -11.6034 3.3983 27.9454 2.4956 -1.7179 13.2711 -8.0979 -22.9984 -0.0000 -0.0000 -55.0809 30.7916 -1.5011 -33.1819 -2.0778 3.5986 2.3164 13.6243 -3.1852 -8.5930 9.7647 -22.9500 -21.2625 -4.8860 0.0001 -1.4920 -17.8722 0.0007 -0.0046 -18.8898 0.0008 -0.0049 -0.1361 0.9303 -16.5428 -17.4817 0.0007 -0.0045 -8.1019 0.0002 -0.0021 -11.4694 0.0003 8.0066 -20.9905 0.0010 -0.0054 -17.9421 0.0007 -0.0046 -17.2955 -0.1616 20.1784 -17.6464 0.0007 -0.0046 -16.7412 0.0006 -0.0043 -28.8616 -2.4079 15.6282 11.1333 -21.4195 -15.5460 0.0000 -0.0000 37.9398 -19.7348 -2.8040 -8.2797 2.7310 2.9504 0.9064 -21.4615 7.8001 10.4149 -29.2012 -16.6643 -3.2131 5.2971 0.0127 21.6545 11.8707 0.0002 0.0016 2.9661 0.0000 0.0004 9.0550 0.0002 2.1488 11.7690 0.0002 0.0016 12.7970 0.0002 0.0018 14.4366 0.0003 -3.8861 16.7640 0.0003 0.0023 13.6701 0.0002 0.0019 20.8137 -0.0405 -15.1848 14.0887 0.0002 0.0019 13.2223 0.0002 0.0018 -81.5975 6.3310 23.1137 92.8932 2.9972 -1.4645 -4.9970 -0.3290 -0.2116 -5.5375 -0.0000 -0.0000 -119.6350 2.1893 -8.2880 131.7471 -4.3602 -0.6685 -5.9182 -1.4611 6.0073 -9.9831 0.0000 -0.0000 
6.0140 114.9761 -6.1341 -1.7635 12.2823 -6.3747 10.9154 5.0485 2.5464 4.0287 2.3571 1.6695 4.0246 2.3875 1.5362 19.3914 -2.8912 -3.5449 -0.0000 0.0000 -0.0000 -27.0877 -10.8435 2.2563 29.0915 3.2603 1.2102 7.5910 0.7104 -22.3716 -0.0000 -0.0000 -62.2039 36.9250 -3.7492 -29.5766 -2.0913 3.5806 2.2186 12.9570 -1.4101 -9.9596 9.1038 -23.1035 -22.8178 -3.4810 0.0001 -1.9637 -17.9190 0.0007 -0.0046 -18.9382 0.0008 -0.0049 -0.3898 1.1146 -16.2986 -17.9051 0.0007 -0.0046 -8.5229 0.0002 -0.0022 -10.6752 0.0003 8.1436 -20.9254 0.0010 -0.0054 -17.8774 0.0007 -0.0046 -16.9238 -0.2116 20.0240 -18.1963 0.0008 -0.0047 -17.2892 0.0007 -0.0045 -28.4950 -2.7727 16.8001 10.9364 -15.3920 -16.0257 0.0000 0.0000 40.6646 -24.1249 -2.2241 -5.8957 2.6290 3.0804 0.2775 -20.8749 7.7624 9.1675 -31.7811 -16.6115 -3.3794 3.7087 -0.0045 21.2744 10.2193 0.0001 0.0014 1.5718 0.0000 0.0002 8.6526 0.0001 2.7256 11.1713 0.0001 0.0015 12.2174 0.0002 0.0017 13.2917 0.0003 -2.8265 14.5471 0.0003 0.0020 11.4448 0.0002 0.0016 18.9461 -0.0617 -15.0605 11.4009 0.0002 0.0016 10.6696 0.0001 0.0015 -67.9252 8.6806 22.9014 73.3494 -0.5301 -3.0602 3.6294 -0.6952 -3.1878 -5.6615 0.0000 -0.0000 -112.0244 0.3804 -8.1658 130.4846 -5.1020 0.0051 -2.1760 -1.2672 6.4585 -10.5136 0.0000 -0.0000 
7.0333 111.5597 -3.7810 -2.5707 10.1449 -6.7923 9.4944 5.6732 3.9913 3.3800 2.5579 1.8888 3.3707 2.6059 1.7602 20.1101 -2.9900 -3.0700 -0.0000 0.0000 -0.0000 -22.9351 -10.4718 1.7054 28.5489 3.8818 4.1212 0.9370 7.7925 -19.9064 -0.0000 -0.0000 -71.8071 42.9930 -6.0631 -25.4546 -2.1141 3.5478 2.0448 13.1563 -2.0859 -11.8484 9.2236 -23.2361 -22.7893 -2.8245 0.0001 -2.3794 -18.0252 0.0007 -0.0046 -19.0461 0.0008 -0.0049 -0.2010 0.8969 -17.1929 -18.1829 0.0008 -0.0047 -8.8006 0.0002 -0.0023 -10.9041 0.0003 8.3841 -21.2474 0.0010 -0.0055 -18.2000 0.0007 -0.0047 -17.3319 -0.2384 20.3712 -18.9251 0.0008 -0.0049 -18.0170 0.0007 -0.0046 -28.1144 -2.9592 17.4604 12.8560 -7.9088 -19.3438 -0.0000 0.0000 45.8389 -28.7313 -2.5639 -3.5973 2.5044 3.2388 -0.4975 -19.6786 7.7409 7.5634 -32.5686 -16.3334 -4.2493 1.2597 -0.0032 19.7374 8.0531 0.0001 0.0011 -0.5631 0.0000 -0.0000 6.6673 0.0001 2.9767 9.9734 0.0001 0.0014 11.0301 0.0001 0.0015 9.1776 0.0002 -2.9633 12.3831 0.0002 0.0017 9.2884 0.0001 0.0013 13.4650 0.0471 -16.0369 8.8527 0.0001 0.0012 8.3523 0.0001 0.0012 -52.7407 9.7940 19.2821 51.4021 -3.5389 -2.6376 13.7444 -1.8003 -8.4355 -5.0751 0.0000 -0.0000 -97.1713 -0.3521 -9.0152 123.8623 -5.5604 1.5244 1.6081 -0.8463 7.7280 -9.4443 0.0000 -0.0000 
7.7050 106.7506 -0.6790 -1.9553 7.4484 -7.1344 8.0929 6.0896 4.6944 2.7783 2.7772 1.8924 2.7664 2.8262 1.7731 20.3528 -3.0274 -1.9644 -0.0000 0.0000 -0.0000 -18.1976 -11.0419 2.5402 26.3107 4.1958 6.3712 -6.3734 12.0197 -13.7382 -0.0000 -0.0001 -82.7995 45.2954 -8.2187 -23.5313 -2.0734 3.6009 2.3366 13.4871 -3.3800 -11.3095 9.8311 -22.8081 -20.6870 -2.6527 0.0001 -2.6501 -18.1325 0.0007 -0.0047 -19.1558 0.0008 -0.0049 -0.1664 0.6097 -17.2519 -18.2564 0.0008 -0.0047 -8.8748 0.0002 -0.0023 -11.3529 0.0003 8.0403 -21.7405 0.0011 -0.0055 -18.6932 0.0008 -0.0048 -18.0913 -0.2006 19.7684 -19.4645 0.0009 -0.0050 -18.5572 0.0008 -0.0048 -26.9357 -2.7508 17.4428 16.9198 -1.7049 -25.3738 -0.0000 0.0000 51.6248 -31.9861 -4.3868 -2.5383 2.3647 3.4160 -1.3749 -18.8012 7.7213 5.8437 -32.2372 -16.0217 -5.2153 0.0693 0.0023 17.4948 6.0309 0.0000 0.0008 -2.6989 0.0000 -0.0004 3.7853 0.0000 2.6700 9.6103 0.0001 0.0013 10.6625 0.0001 0.0015 4.9961 0.0001 -3.2760 10.8844 0.0001 0.0015 7.8026 0.0001 0.0011 8.8601 0.1854 -15.6685 7.4966 0.0001 0.0010 7.1052 0.0001 0.0010 -37.3786 9.0312 14.0144 32.4460 -2.9995 0.9342 19.6875 -3.0395 -12.5795 -4.9729 -0.0000 -0.0000 -78.6877 -2.3261 -10.3520 112.6424 -7.5184 2.4296 4.3666 -0.2879 9.6162 -7.9647 0.0000 -0.0000 
7.5229 100.7798 2.1331 0.7024 4.7677 -7.3916 7.0889 6.0706 4.1959 2.4608 2.9325 1.6982 2.4552 2.9616 1.5958 19.2157 -3.0413 -0.4101 -0.0000 0.0000 -0.0000 -14.0973 -12.8299 5.3817 22.6083 4.1314 7.4155 -14.0589 12.3567 -4.1130 -0.0000 -0.0000 -92.7643 42.4697 -9.8510 -24.1480 -1.8860 3.8619 3.7349 13.2487 -2.4517 -5.3798 11.0809 -21.1864 -15.0205 -2.5152 0.0000 -2.9311 -18.1754 0.0007 -0.0047 -19.2029 0.0008 -0.0050 -0.8803 0.5163 -14.4326 -18.2613 0.0008 -0.0047 -8.8798 0.0002 -0.0023 -11.1130 0.0004 6.2077 -21.9938 0.0011 -0.0056 -18.9446 0.0008 -0.0049 -19.1486 -0.1147 15.7424 -19.6045 0.0009 -0.0051 -18.6994 0.0008 -0.0048 -23.9901 -1.9192 16.1849 22.1144 0.1317 -31.0320 0.0000 0.0000 55.2364 -33.7344 -8.7273 -2.4451 2.2181 3.6011 -2.3043 -19.4740 7.6789 4.3261 -32.2054 -16.4558 -3.8627 1.2221 -0.0010 15.7994 5.0560 0.0000 0.0007 -3.6439 0.0000 -0.0005 2.1778 0.0000 2.3706 11.3630 0.0002 0.0016 12.4111 0.0002 0.0017 4.4597 0.0001 -2.2980 10.3510 0.0001 0.0014 7.2818 0.0001 0.0010 10.0583 -0.0785 -11.9499 7.1398 0.0001 0.0010 6.6022 0.0001 0.0009 -27.7805 7.9934 10.5723 25.1564 -2.0312 4.4057 15.9238 -2.1552 -11.2590 -7.2020 -0.0000 -0.0000 -60.0609 -6.2371 -11.1107 97.5615 -9.8200 2.4217 4.8827 -0.2853 11.9027 -8.6629 0.0000 -0.0000 
